<svg xmlns="http://www.w3.org/2000/svg" viewBox="0 0 32 32" shape-rendering="crispEdges">
  <!-- Body -->
  <g fill="#161616">
    <rect x="11" y="3" width="1" height="1"/>
    <rect x="21" y="3" width="1" height="1"/>
    <rect x="10" y="4" width="2" height="1"/>
    <rect x="21" y="4" width="2" height="1"/>
    <rect x="10" y="5" width="13" height="1"/>
    <rect x="9" y="6" width="15" height="1"/>
    <rect x="8" y="7" width="17" height="1"/>
    <rect x="7" y="8" width="19" height="9"/>
    <rect x="6" y="17" width="21" height="4"/>
    <rect x="7" y="21" width="19" height="1"/>
    <rect x="8" y="22" width="17" height="1"/>
    <rect x="9" y="23" width="15" height="1"/>
    <rect x="10" y="24" width="13" height="1"/>
    <rect x="11" y="25" width="11" height="1"/>
    <rect x="11" y="26" width="3" height="2"/>
    <rect x="19" y="26" width="3" height="2"/>
  </g>

  <!-- Gold outline -->
  <g fill="#2a2218">
    <rect x="10" y="2" width="2" height="1"/>
    <rect x="21" y="2" width="2" height="1"/>
    <rect x="9" y="5" width="1" height="1"/>
    <rect x="23" y="5" width="1" height="1"/>
  </g>

  <!-- Eye sockets -->
  <g fill="#050505">
    <rect x="10" y="11" width="5" height="5"/>
    <rect x="18" y="11" width="5" height="5"/>
  </g>

  <!-- Iris gold -->
  <g fill="#c9a84c">
    <rect x="11" y="12" width="3" height="3"/>
    <rect x="19" y="12" width="3" height="3"/>
    <rect x="16" y="8" width="1" height="1"/>
  </g>

  <!-- Catchlights -->
  <g fill="#fff8e1">
    <rect x="11" y="12" width="1" height="1"/>
    <rect x="19" y="12" width="1" height="1"/>
  </g>
</svg>
