<svg xmlns="http://www.w3.org/2000/svg" width="1200" height="630" viewBox="0 0 1200 630" shape-rendering="crispEdges">
  <defs>
    <linearGradient id="bg" x1="0" y1="0" x2="1" y2="1">
      <stop offset="0%" stop-color="#0a0a0a"/>
      <stop offset="100%" stop-color="#040404"/>
    </linearGradient>
    <radialGradient id="glow" cx="0.3" cy="0.5" r="0.45">
      <stop offset="0%" stop-color="rgba(201,168,76,0.15)"/>
      <stop offset="100%" stop-color="rgba(201,168,76,0)"/>
    </radialGradient>
  </defs>

  <!-- Background -->
  <rect width="1200" height="630" fill="url(#bg)"/>
  <rect width="1200" height="630" fill="url(#glow)"/>

  <!-- Top gold hairline -->
  <rect x="0" y="0" width="1200" height="2" fill="#c9a84c" opacity="0.35"/>

  <!-- Onyx pixel character: 32x32 scaled 12x = 384x384, positioned at (100, 120) -->
  <g transform="translate(100, 120) scale(12)" shape-rendering="crispEdges">
    <!-- Body -->
    <g fill="#161616">
      <rect x="11" y="3" width="1" height="1"/>
      <rect x="21" y="3" width="1" height="1"/>
      <rect x="10" y="4" width="2" height="1"/>
      <rect x="21" y="4" width="2" height="1"/>
      <rect x="10" y="5" width="13" height="1"/>
      <rect x="9" y="6" width="15" height="1"/>
      <rect x="8" y="7" width="17" height="1"/>
      <rect x="7" y="8" width="19" height="9"/>
      <rect x="6" y="17" width="21" height="4"/>
      <rect x="7" y="21" width="19" height="1"/>
      <rect x="8" y="22" width="17" height="1"/>
      <rect x="9" y="23" width="15" height="1"/>
      <rect x="10" y="24" width="13" height="1"/>
      <rect x="11" y="25" width="11" height="1"/>
      <rect x="11" y="26" width="3" height="2"/>
      <rect x="19" y="26" width="3" height="2"/>
    </g>
    <!-- Outline hints -->
    <g fill="#2a2218">
      <rect x="10" y="2" width="2" height="1"/>
      <rect x="21" y="2" width="2" height="1"/>
    </g>
    <!-- Eye sockets -->
    <g fill="#050505">
      <rect x="10" y="11" width="5" height="5"/>
      <rect x="18" y="11" width="5" height="5"/>
    </g>
    <!-- Iris -->
    <g fill="#c9a84c">
      <rect x="11" y="12" width="3" height="3"/>
      <rect x="19" y="12" width="3" height="3"/>
      <rect x="16" y="8" width="1" height="1"/>
    </g>
    <!-- Catchlights -->
    <g fill="#fff8e1">
      <rect x="11" y="12" width="1" height="1"/>
      <rect x="19" y="12" width="1" height="1"/>
    </g>
  </g>

  <!-- Text column (right side) -->
  <g font-family="Georgia, 'Times New Roman', serif">
    <!-- "Onyx" -->
    <text x="560" y="258" font-size="132" font-style="italic" fill="#f0e7c8" letter-spacing="-3">Onyx</text>
    <!-- Tagline -->
    <text x="560" y="340" font-size="46" font-style="italic" fill="#c9a84c" letter-spacing="-1">the companion</text>
    <text x="560" y="392" font-size="46" font-style="italic" fill="#c9a84c" letter-spacing="-1">who pays attention.</text>
  </g>

  <!-- Gold hairline -->
  <rect x="560" y="432" width="100" height="2" fill="#c9a84c"/>

  <!-- Mono metadata -->
  <g font-family="ui-monospace, 'SF Mono', Menlo, monospace" fill="#6f6f6f" font-size="20" letter-spacing="3">
    <text x="560" y="478">FOR THE ONES IN IT ALONE</text>
    <text x="560" y="508" fill="#a68b3e">PRIVATE BETA &#183; WAITLIST OPEN</text>
  </g>

  <!-- Bottom accent dots -->
  <g fill="#c9a84c">
    <rect x="560" y="550" width="4" height="4" opacity="0.8"/>
    <rect x="572" y="550" width="4" height="4" opacity="0.5"/>
    <rect x="584" y="550" width="4" height="4" opacity="0.3"/>
  </g>
</svg>
